# xmcd CD database file
#
# Track frame offsets:
#	150
#	15082
#	37364
#	56992
#	82123
#	98134
#	116745
#	146039
#	170404
#	193172
#	205039
#	228746
#	241080
#	262132
#	297145
#	322919
#	334636
#
# Disc length: 4778 seconds
#
# Revision: 0
# Processed by: cddbd v1.5.2PL0 Copyright (c) Steve Scherf et al.
# Submitted via: CDex 1.70beta2
#
DISCID=fb12a811
DTITLE=Chocolate Caliente - Chocolate Caliente
DYEAR=1900
DGENRE=Salsa
TTITLE0=Que voy hacer
TTITLE1=la chinita
TTITLE2=la borrachera
TTITLE3=menitras
TTITLE4=te enamoraste
TTITLE5=merengue africano
TTITLE6=monton de estrellas
TTITLE7=cha cha cha
TTITLE8=para los soneros
TTITLE9=sueno de amor
TTITLE10=habana club
TTITLE11=amor fatal
TTITLE12=hasta siempre
TTITLE13=chan chan
TTITLE14=guantanamera
TTITLE15=amor fugas
TTITLE16=yolanda
EXTD=
EXTT0=
EXTT1=
EXTT2=
EXTT3=
EXTT4=
EXTT5=
EXTT6=
EXTT7=
EXTT8=
EXTT9=
EXTT10=
EXTT11=
EXTT12=
EXTT13=
EXTT14=
EXTT15=
EXTT16=
PLAYORDER=
